<svg width="72" height="72" viewBox="0 0 72 72" fill="none" xmlns="http://www.w3.org/2000/svg">
<g style="mix-blend-mode:exclusion">
<rect width="72" height="72" rx="36" fill="#FFFEF9"/>
<g style="mix-blend-mode:exclusion">
<path d="M22.736 37.98C22.736 38.476 22.604 38.924 22.34 39.324C22.084 39.724 21.712 40.04 21.224 40.272C20.736 40.504 20.144 40.62 19.448 40.62C18.752 40.62 18.152 40.504 17.648 40.272C17.152 40.032 16.764 39.696 16.484 39.264C16.204 38.832 16.044 38.332 16.004 37.764H17.348C17.38 38.308 17.568 38.744 17.912 39.072C18.264 39.4 18.768 39.564 19.424 39.564C19.792 39.564 20.12 39.508 20.408 39.396C20.696 39.284 20.92 39.124 21.08 38.916C21.248 38.708 21.332 38.456 21.332 38.16C21.332 37.8 21.212 37.52 20.972 37.32C20.732 37.12 20.364 36.968 19.868 36.864L18.62 36.624C18.316 36.56 18.024 36.472 17.744 36.36C17.472 36.248 17.224 36.104 17 35.928C16.784 35.744 16.612 35.52 16.484 35.256C16.364 34.984 16.304 34.668 16.304 34.308C16.304 33.82 16.432 33.384 16.688 33C16.952 32.616 17.312 32.316 17.768 32.1C18.232 31.876 18.764 31.764 19.364 31.764C19.964 31.764 20.5 31.88 20.972 32.112C21.452 32.344 21.836 32.668 22.124 33.084C22.42 33.5 22.584 33.996 22.616 34.572H21.272C21.248 34.228 21.152 33.924 20.984 33.66C20.824 33.396 20.608 33.192 20.336 33.048C20.064 32.896 19.744 32.82 19.376 32.82C19.008 32.82 18.696 32.888 18.44 33.024C18.184 33.152 17.988 33.324 17.852 33.54C17.716 33.748 17.648 33.976 17.648 34.224C17.648 34.496 17.716 34.716 17.852 34.884C17.996 35.044 18.184 35.172 18.416 35.268C18.648 35.364 18.896 35.44 19.16 35.496L20.432 35.748C21.176 35.9 21.744 36.148 22.136 36.492C22.536 36.836 22.736 37.332 22.736 37.98ZM28.0201 40.5V39.516C27.8201 39.868 27.5481 40.14 27.2041 40.332C26.8601 40.524 26.4521 40.62 25.9801 40.62C25.3241 40.62 24.7961 40.448 24.3961 40.104C23.9961 39.752 23.7961 39.284 23.7961 38.7C23.7961 38.076 24.0401 37.604 24.5281 37.284C25.0241 36.964 25.7441 36.804 26.6881 36.804C26.8721 36.804 27.0521 36.808 27.2281 36.816C27.4041 36.824 27.6201 36.844 27.8761 36.876V36.408C27.8761 35.96 27.7601 35.612 27.5281 35.364C27.2961 35.108 26.9681 34.98 26.5441 34.98C26.1041 34.98 25.7521 35.108 25.4881 35.364C25.2321 35.612 25.0961 35.956 25.0801 36.396H23.9761C23.9921 35.916 24.1081 35.5 24.3241 35.148C24.5481 34.788 24.8481 34.512 25.2241 34.32C25.6081 34.12 26.0481 34.02 26.5441 34.02C27.3281 34.02 27.9361 34.232 28.3681 34.656C28.8081 35.072 29.0281 35.66 29.0281 36.42V40.5H28.0201ZM24.9481 38.664C24.9481 38.992 25.0641 39.256 25.2961 39.456C25.5281 39.656 25.8361 39.756 26.2201 39.756C26.7321 39.756 27.1361 39.612 27.4321 39.324C27.7281 39.028 27.8761 38.636 27.8761 38.148V37.632C27.6441 37.608 27.4401 37.592 27.2641 37.584C27.0881 37.568 26.9201 37.56 26.7601 37.56C26.1521 37.56 25.6961 37.652 25.3921 37.836C25.0961 38.012 24.9481 38.288 24.9481 38.664ZM35.7294 34.14L32.5494 42.816H31.2294L32.1414 40.416L29.6334 34.14H30.9414L32.7894 38.988L34.5054 34.14H35.7294ZM40.5138 40.5H39.1938V31.884H40.5138V35.484H44.8818V31.884H46.2018V40.5H44.8818V36.636H40.5138V40.5ZM49.1926 40.5H47.9806V34.14H49.1926V40.5ZM49.4566 32.664C49.4566 32.888 49.3726 33.08 49.2046 33.24C49.0446 33.392 48.8366 33.468 48.5806 33.468C48.3166 33.468 48.1006 33.392 47.9326 33.24C47.7726 33.08 47.6926 32.888 47.6926 32.664C47.6926 32.424 47.7726 32.232 47.9326 32.088C48.1006 31.936 48.3166 31.86 48.5806 31.86C48.8366 31.86 49.0446 31.936 49.2046 32.088C49.3726 32.232 49.4566 32.424 49.4566 32.664ZM54.607 38.136H53.683L53.395 31.884H54.895L54.607 38.136ZM55.099 39.66C55.099 39.916 55.007 40.132 54.823 40.308C54.639 40.476 54.415 40.56 54.151 40.56C53.879 40.56 53.651 40.476 53.467 40.308C53.291 40.132 53.203 39.916 53.203 39.66C53.203 39.388 53.291 39.168 53.467 39C53.651 38.824 53.879 38.736 54.151 38.736C54.423 38.736 54.647 38.824 54.823 39C55.007 39.168 55.099 39.388 55.099 39.66Z" fill="#FFFEF9"/>
<path d="M15.5 42.9H55.759V43.62H15.5V42.9Z" fill="#FFFEF9"/>
</g>
</g>
</svg>
